<?xml version="1.0" encoding="utf-8"?>
<!-- Generator: Adobe Illustrator 27.3.1, SVG Export Plug-In . SVG Version: 6.00 Build 0)  -->
<svg version="1.1" id="Слой_1" xmlns="http://www.w3.org/2000/svg" xmlns:xlink="http://www.w3.org/1999/xlink" x="0px" y="0px"
	 viewBox="0 0 1024 1024" style="enable-background:new 0 0 1024 1024;" xml:space="preserve">
<style type="text/css">
	.st0{fill:#16191A;}
	.st1{fill:#17D760;}
</style>
<g id="surface1">
	<rect class="st0" width="1024" height="1024"/>
	<path class="st1" d="M626.56,249.63c-0.49,6.4-1.97,12.68-4.43,18.71c39.51,20.8,72.75,51.45,96.87,89.37
		c26.34,41.36,40.25,89.24,40.25,138.36v33.97c0,140.82-114.6,255.42-255.42,255.42c-140.82,0-255.42-114.6-255.42-255.42
		c0-111.89,71.64-209.75,178.24-243.48c3.2-0.99,6.64-0.62,9.48,0.98c18.46,10.34,42.47,16,67.58,16s49.11-5.66,67.58-16
		c10.47-5.91,18.84-13.05,24.13-20.8c0.12-0.12,0.25-0.25,0.37-0.49c4.43-6.65,6.65-13.42,6.65-20.44c0-3.57-0.61-7.14-1.72-10.59
		c0-0.12-0.12-0.25-0.12-0.37c-7.88-23.27-70.16-46.9-123.34-46.9c-45.3,0-60.56,17.97-70.41,46.9c-1.23,3.45-3.94,6.16-7.26,7.38
		c-120.63,43.82-201.63,159.53-201.63,287.79c0,168.64,137.25,306.01,306.01,306.01c168.64,0,306.01-137.25,306.01-306.01
		C809.85,408.42,736.98,298.12,626.56,249.63z M484.64,248.15c0-6.65,5.42-12.06,12.06-12.06s12.06,5.42,12.06,12.06v4.8
		c0,6.65-5.42,12.06-12.06,12.06s-12.06-5.42-12.06-12.06V248.15z"/>
</g>
</svg>
